# Blender v2.92.0 OBJ File: 'OAT_Visualization_v02.blend'
# www.blender.org
mtllib OAT_Compass.mtl
o North_Mesh.034
v -3.538978 -0.000006 40.774773
v -2.556032 -0.000006 40.774773
v -2.556033 -0.000006 35.133514
v 2.380068 -0.000006 40.774773
v 3.213435 -0.000006 40.774773
v 3.213434 -0.000005 33.488148
v 2.230488 -0.000005 33.488148
v 2.230489 -0.000006 39.097351
v -2.641507 -0.000005 33.488148
v -3.538979 -0.000005 33.488148
vt 0.555556 0.000000
vt 0.333333 0.000000
vt 0.444444 0.000000
vt 0.777778 0.000000
vt 0.222222 0.000000
vt 0.000000 0.000000
vt 0.111111 0.000000
vt 1.000000 0.000000
vt 0.666667 0.000000
vt 0.888889 0.000000
vn -0.0000 1.0000 0.0000
usemtl BlueMaterial
s 1
f 6/1/1 4/2/1 5/3/1
f 6/1/1 8/4/1 4/2/1
f 8/4/1 3/5/1 4/2/1
f 3/5/1 1/6/1 2/7/1
f 3/5/1 10/8/1 1/6/1
f 6/1/1 7/9/1 8/4/1
f 9/10/1 3/5/1 8/4/1
f 9/10/1 10/8/1 3/5/1
o Text_Mesh.035
v 2.603991 0.000006 -45.569557
v 2.437507 0.000006 -45.675205
v 2.268918 0.000006 -45.771671
v 2.098414 0.000006 -45.858948
v 1.926188 0.000006 -45.937038
v 1.752431 0.000006 -46.005939
v 1.577335 0.000006 -46.065659
v 1.401090 0.000006 -46.116188
v 1.223887 0.000006 -46.157528
v 1.045920 0.000006 -46.189682
v 0.867378 0.000006 -46.212650
v 0.688454 0.000006 -46.226433
v 0.509337 0.000006 -46.231026
v 0.091350 0.000006 -46.210888
v -0.300082 0.000006 -46.151466
v -0.663091 0.000006 -46.054245
v -0.995811 0.000006 -45.920708
v -1.296377 0.000006 -45.752331
v -1.562922 0.000006 -45.550606
v -1.793579 0.000006 -45.317013
v -1.986484 0.000006 -45.053036
v -2.139770 0.000006 -44.760159
v -2.251570 0.000006 -44.439865
v -2.320018 0.000006 -44.093632
v -2.343249 0.000006 -43.722954
v -2.263261 0.000006 -43.125443
v -2.042117 0.000006 -42.611954
v -1.708049 0.000006 -42.168327
v -1.289288 0.000006 -41.780399
v -0.814064 0.000006 -41.434002
v -0.310609 0.000006 -41.114975
v 0.192846 0.000006 -40.809151
v 0.668070 0.000006 -40.502373
v 1.086831 0.000006 -40.180477
v 1.420899 0.000006 -39.829292
v 1.642043 0.000006 -39.434662
v 1.722032 0.000006 -38.982422
v 1.711935 0.000006 -38.849098
v 1.681455 0.000006 -38.712807
v 1.630304 0.000006 -38.576324
v 1.558195 0.000006 -38.442429
v 1.464841 0.000006 -38.313889
v 1.349955 0.000006 -38.193481
v 1.213249 0.000006 -38.083988
v 1.054437 0.000006 -37.988178
v 0.873232 0.000006 -37.908829
v 0.669346 0.000006 -37.848713
v 0.442492 0.000006 -37.810608
v 0.192384 0.000006 -37.797291
v -0.037222 0.000006 -37.807289
v -0.264099 0.000006 -37.837101
v -0.487819 0.000006 -37.886433
v -0.707950 0.000006 -37.955002
v -0.924061 0.000006 -38.042519
v -1.135723 0.000006 -38.148697
v -1.342504 0.000006 -38.273247
v -1.543973 0.000006 -38.415886
v -1.739701 0.000006 -38.576324
v -1.929256 0.000006 -38.754276
v -2.112208 0.000006 -38.949455
v -2.288126 0.000006 -39.161572
v -2.288126 0.000006 -37.452774
v -2.090804 0.000006 -37.311214
v -1.891232 0.000006 -37.182713
v -1.688885 0.000006 -37.067135
v -1.483237 0.000006 -36.964329
v -1.273761 0.000006 -36.874157
v -1.059930 0.000006 -36.796474
v -0.841218 0.000006 -36.731136
v -0.617100 0.000006 -36.677998
v -0.387048 0.000006 -36.636921
v -0.150537 0.000006 -36.607754
v 0.092961 0.000006 -36.590363
v 0.343970 0.000006 -36.584595
v 0.714196 0.000006 -36.606598
v 1.065283 0.000006 -36.671043
v 1.394742 0.000006 -36.775589
v 1.700084 0.000006 -36.917885
v 1.978823 0.000006 -37.095589
v 2.228469 0.000006 -37.306355
v 2.446535 0.000006 -37.547844
v 2.630531 0.000006 -37.817707
v 2.777971 0.000006 -38.113598
v 2.886366 0.000006 -38.433178
v 2.953228 0.000006 -38.774094
v 2.976067 0.000006 -39.134010
v 2.896079 0.000006 -39.821541
v 2.674935 0.000006 -40.400166
v 2.340867 0.000006 -40.886730
v 1.922106 0.000006 -41.298077
v 1.446882 0.000006 -41.651047
v 0.943427 0.000006 -41.962479
v 0.439972 0.000006 -42.249226
v -0.035251 0.000006 -42.528122
v -0.454013 0.000006 -42.816017
v -0.788081 0.000006 -43.129749
v -1.009225 0.000006 -43.486164
v -1.089213 0.000006 -43.902100
v -1.076509 0.000006 -44.063019
v -1.039259 0.000006 -44.214462
v -0.978753 0.000006 -44.355572
v -0.896285 0.000006 -44.485481
v -0.793145 0.000006 -44.603333
v -0.670627 0.000006 -44.708267
v -0.530022 0.000006 -44.799423
v -0.372622 0.000006 -44.875931
v -0.199718 0.000006 -44.936939
v -0.012603 0.000006 -44.981583
v 0.187431 0.000006 -45.009003
v 0.399093 0.000006 -45.018333
v 0.560377 0.000006 -45.013554
v 0.727020 0.000006 -44.998489
v 0.898640 0.000006 -44.972038
v 1.074853 0.000006 -44.933094
v 1.255277 0.000006 -44.880566
v 1.439529 0.000006 -44.813343
v 1.627226 0.000006 -44.730331
v 1.817986 0.000006 -44.630432
v 2.011425 0.000006 -44.512539
v 2.207160 0.000006 -44.375553
v 2.404810 0.000006 -44.218376
v 2.603991 0.000006 -44.039906
vt 0.107438 0.000000
vt 0.090909 0.000000
vt 0.099174 0.000000
vt 0.082645 0.000000
vt 0.074380 0.000000
vt 0.115702 0.000000
vt 0.066116 0.000000
vt 0.057851 0.000000
vt 0.123967 0.000000
vt 0.049587 0.000000
vt 0.041322 0.000000
vt 0.132231 0.000000
vt 0.033058 0.000000
vt 0.024793 0.000000
vt 0.140496 0.000000
vt 0.016529 0.000000
vt 0.008264 0.000000
vt 0.148760 0.000000
vt 0.000000 0.000000
vt 0.933884 0.000000
vt 0.942149 0.000000
vt 0.950413 0.000000
vt 0.958678 0.000000
vt 0.966942 0.000000
vt 0.975207 0.000000
vt 0.983471 0.000000
vt 0.991736 0.000000
vt 1.000000 0.000000
vt 0.157025 0.000000
vt 0.917355 0.000000
vt 0.925620 0.000000
vt 0.165289 0.000000
vt 0.900826 0.000000
vt 0.909091 0.000000
vt 0.173554 0.000000
vt 0.892562 0.000000
vt 0.884298 0.000000
vt 0.876033 0.000000
vt 0.867769 0.000000
vt 0.859504 0.000000
vt 0.851240 0.000000
vt 0.181818 0.000000
vt 0.842975 0.000000
vt 0.834711 0.000000
vt 0.826446 0.000000
vt 0.190083 0.000000
vt 0.818182 0.000000
vt 0.809917 0.000000
vt 0.198347 0.000000
vt 0.801653 0.000000
vt 0.793388 0.000000
vt 0.206612 0.000000
vt 0.785124 0.000000
vt 0.776860 0.000000
vt 0.214876 0.000000
vt 0.768595 0.000000
vt 0.223140 0.000000
vt 0.760331 0.000000
vt 0.752066 0.000000
vt 0.231405 0.000000
vt 0.743802 0.000000
vt 0.239669 0.000000
vt 0.735537 0.000000
vt 0.247934 0.000000
vt 0.727273 0.000000
vt 0.256198 0.000000
vt 0.719008 0.000000
vt 0.264463 0.000000
vt 0.272727 0.000000
vt 0.710744 0.000000
vt 0.280992 0.000000
vt 0.289256 0.000000
vt 0.702479 0.000000
vt 0.297521 0.000000
vt 0.504132 0.000000
vt 0.487603 0.000000
vt 0.495868 0.000000
vt 0.694215 0.000000
vt 0.305785 0.000000
vt 0.479339 0.000000
vt 0.314050 0.000000
vt 0.685950 0.000000
vt 0.471074 0.000000
vt 0.322314 0.000000
vt 0.462810 0.000000
vt 0.330579 0.000000
vt 0.338843 0.000000
vt 0.677686 0.000000
vt 0.454545 0.000000
vt 0.347107 0.000000
vt 0.446281 0.000000
vt 0.355372 0.000000
vt 0.438017 0.000000
vt 0.669421 0.000000
vt 0.363636 0.000000
vt 0.429752 0.000000
vt 0.371901 0.000000
vt 0.421488 0.000000
vt 0.380165 0.000000
vt 0.413223 0.000000
vt 0.388430 0.000000
vt 0.404959 0.000000
vt 0.661157 0.000000
vt 0.396694 0.000000
vt 0.652893 0.000000
vt 0.512397 0.000000
vt 0.520661 0.000000
vt 0.644628 0.000000
vt 0.528926 0.000000
vt 0.636364 0.000000
vt 0.537190 0.000000
vt 0.545455 0.000000
vt 0.628099 0.000000
vt 0.553719 0.000000
vt 0.561983 0.000000
vt 0.619835 0.000000
vt 0.570248 0.000000
vt 0.578512 0.000000
vt 0.611570 0.000000
vt 0.586777 0.000000
vt 0.595041 0.000000
vt 0.603306 0.000000
vn 0.0000 1.0000 -0.0000
usemtl BlueMaterial
s 1
f 24/11/2 22/12/2 23/13/2
f 24/11/2 21/14/2 22/12/2
f 24/11/2 20/15/2 21/14/2
f 25/16/2 20/15/2 24/11/2
f 25/16/2 19/17/2 20/15/2
f 25/16/2 18/18/2 19/17/2
f 26/19/2 18/18/2 25/16/2
f 26/19/2 17/20/2 18/18/2
f 26/19/2 16/21/2 17/20/2
f 27/22/2 16/21/2 26/19/2
f 27/22/2 15/23/2 16/21/2
f 27/22/2 14/24/2 15/23/2
f 28/25/2 14/24/2 27/22/2
f 28/25/2 13/26/2 14/24/2
f 28/25/2 12/27/2 13/26/2
f 29/28/2 12/27/2 28/25/2
f 29/28/2 11/29/2 12/27/2
f 29/28/2 124/30/2 11/29/2
f 124/30/2 125/31/2 11/29/2
f 125/31/2 126/32/2 11/29/2
f 126/32/2 127/33/2 11/29/2
f 127/33/2 128/34/2 11/29/2
f 128/34/2 129/35/2 11/29/2
f 129/35/2 130/36/2 11/29/2
f 130/36/2 131/37/2 11/29/2
f 131/37/2 132/38/2 11/29/2
f 30/39/2 122/40/2 29/28/2
f 122/40/2 123/41/2 29/28/2
f 123/41/2 124/30/2 29/28/2
f 31/42/2 120/43/2 30/39/2
f 120/43/2 121/44/2 30/39/2
f 121/44/2 122/40/2 30/39/2
f 32/45/2 119/46/2 31/42/2
f 119/46/2 120/43/2 31/42/2
f 32/45/2 118/47/2 119/46/2
f 32/45/2 117/48/2 118/47/2
f 32/45/2 116/49/2 117/48/2
f 32/45/2 115/50/2 116/49/2
f 32/45/2 114/51/2 115/50/2
f 33/52/2 114/51/2 32/45/2
f 33/52/2 113/53/2 114/51/2
f 33/52/2 112/54/2 113/53/2
f 33/52/2 111/55/2 112/54/2
f 34/56/2 111/55/2 33/52/2
f 34/56/2 110/57/2 111/55/2
f 34/56/2 109/58/2 110/57/2
f 35/59/2 109/58/2 34/56/2
f 35/59/2 108/60/2 109/58/2
f 35/59/2 107/61/2 108/60/2
f 36/62/2 107/61/2 35/59/2
f 36/62/2 106/63/2 107/61/2
f 36/62/2 105/64/2 106/63/2
f 37/65/2 105/64/2 36/62/2
f 37/65/2 104/66/2 105/64/2
f 38/67/2 104/66/2 37/65/2
f 38/67/2 103/68/2 104/66/2
f 38/67/2 102/69/2 103/68/2
f 39/70/2 102/69/2 38/67/2
f 39/70/2 101/71/2 102/69/2
f 40/72/2 101/71/2 39/70/2
f 40/72/2 100/73/2 101/71/2
f 41/74/2 100/73/2 40/72/2
f 41/74/2 99/75/2 100/73/2
f 42/76/2 99/75/2 41/74/2
f 42/76/2 98/77/2 99/75/2
f 43/78/2 98/77/2 42/76/2
f 44/79/2 98/77/2 43/78/2
f 44/79/2 97/80/2 98/77/2
f 45/81/2 97/80/2 44/79/2
f 46/82/2 97/80/2 45/81/2
f 46/82/2 96/83/2 97/80/2
f 47/84/2 96/83/2 46/82/2
f 72/85/2 70/86/2 71/87/2
f 47/84/2 95/88/2 96/83/2
f 48/89/2 95/88/2 47/84/2
f 72/85/2 69/90/2 70/86/2
f 49/91/2 95/88/2 48/89/2
f 49/91/2 94/92/2 95/88/2
f 72/85/2 68/93/2 69/90/2
f 50/94/2 94/92/2 49/91/2
f 72/85/2 67/95/2 68/93/2
f 51/96/2 94/92/2 50/94/2
f 52/97/2 94/92/2 51/96/2
f 52/97/2 93/98/2 94/92/2
f 72/85/2 66/99/2 67/95/2
f 53/100/2 93/98/2 52/97/2
f 72/85/2 65/101/2 66/99/2
f 54/102/2 93/98/2 53/100/2
f 72/85/2 64/103/2 65/101/2
f 54/102/2 92/104/2 93/98/2
f 55/105/2 92/104/2 54/102/2
f 72/85/2 63/106/2 64/103/2
f 56/107/2 92/104/2 55/105/2
f 72/85/2 62/108/2 63/106/2
f 57/109/2 92/104/2 56/107/2
f 72/85/2 61/110/2 62/108/2
f 58/111/2 92/104/2 57/109/2
f 72/85/2 60/112/2 61/110/2
f 58/111/2 91/113/2 92/104/2
f 59/114/2 91/113/2 58/111/2
f 72/85/2 59/114/2 60/112/2
f 72/85/2 91/113/2 59/114/2
f 72/85/2 90/115/2 91/113/2
f 73/116/2 90/115/2 72/85/2
f 74/117/2 90/115/2 73/116/2
f 74/117/2 89/118/2 90/115/2
f 75/119/2 89/118/2 74/117/2
f 75/119/2 88/120/2 89/118/2
f 76/121/2 88/120/2 75/119/2
f 77/122/2 88/120/2 76/121/2
f 77/122/2 87/123/2 88/120/2
f 78/124/2 87/123/2 77/122/2
f 79/125/2 87/123/2 78/124/2
f 79/125/2 86/126/2 87/123/2
f 80/127/2 86/126/2 79/125/2
f 81/128/2 86/126/2 80/127/2
f 81/128/2 85/129/2 86/126/2
f 82/130/2 85/129/2 81/128/2
f 83/131/2 85/129/2 82/130/2
f 83/131/2 84/132/2 85/129/2
o pCylinder1_Mesh.036
v 30.860195 -0.015095 -3.898551
v 30.128233 -0.015093 -7.735617
v 28.921133 -0.015093 -11.450688
v 27.257929 -0.015093 -14.985175
v 25.164850 -0.015091 -18.283337
v 22.674910 -0.015091 -21.293159
v 19.827370 -0.015091 -23.967176
v 16.667141 -0.015091 -26.263216
v 13.244061 -0.015091 -28.145067
v 9.612115 -0.015089 -29.583055
v 5.828580 -0.015089 -30.554502
v 1.953125 -0.015089 -31.044085
v -1.953131 -0.015089 -31.044083
v -5.828585 -0.015089 -30.554499
v -9.612119 -0.015089 -29.583052
v -13.244063 -0.015091 -28.145061
v -16.667141 -0.015091 -26.263206
v -19.827368 -0.015091 -23.967167
v -22.674906 -0.015091 -21.293150
v -25.164845 -0.015091 -18.283327
v -27.257921 -0.015093 -14.985166
v -28.921124 -0.015093 -11.450680
v -30.128222 -0.015093 -7.735610
v -30.860182 -0.015095 -3.898545
v -31.105457 -0.015095 0.000003
v -30.860180 -0.015095 3.898550
v -30.128220 -0.015097 7.735615
v -28.921120 -0.015097 11.450685
v -27.257915 -0.015097 14.985169
v -25.164837 -0.015099 18.283329
v -22.674896 -0.015099 21.293150
v -19.827358 -0.015099 23.967165
v -16.667131 -0.015099 26.263203
v -13.244053 -0.015099 28.145054
v -9.612109 -0.015100 29.583040
v -5.828577 -0.015100 30.554485
v -1.953124 -0.015100 31.044067
v 1.953130 -0.015100 31.044065
v 5.828582 -0.015100 30.554482
v 9.612114 -0.015100 29.583035
v 13.244056 -0.015099 28.145044
v 16.667131 -0.015099 26.263191
v 19.827356 -0.015099 23.967154
v 22.674892 -0.015099 21.293139
v 25.164831 -0.015099 18.283318
v 27.257904 -0.015097 14.985158
v 28.921104 -0.015097 11.450675
v 30.128204 -0.015097 7.735608
v 30.860163 -0.015095 3.898545
v 31.105438 -0.015095 -0.000000
v 28.288509 -0.015095 -3.573671
v 27.617544 -0.015093 -7.090982
v 26.511034 -0.015093 -10.496464
v 24.986431 -0.015093 -13.736409
v 23.067778 -0.015093 -16.759724
v 20.785332 -0.015091 -19.518728
v 18.175087 -0.015091 -21.969910
v 15.278211 -0.015091 -24.074612
v 12.140388 -0.015091 -25.799643
v 8.811104 -0.015091 -27.117800
v 5.342865 -0.015091 -28.008291
v 1.790365 -0.015091 -28.457075
v -1.790370 -0.015091 -28.457073
v -5.342869 -0.015091 -28.008287
v -8.811108 -0.015091 -27.117794
v -12.140389 -0.015091 -25.799637
v -15.278211 -0.015091 -24.074604
v -18.175085 -0.015091 -21.969900
v -20.785328 -0.015091 -19.518719
v -23.067772 -0.015093 -16.759714
v -24.986425 -0.015093 -13.736401
v -26.511028 -0.015093 -10.496456
v -27.617535 -0.015093 -7.090975
v -28.288498 -0.015095 -3.573666
v -28.513332 -0.015095 0.000003
v -28.288496 -0.015095 3.573671
v -27.617533 -0.015097 7.090980
v -26.511024 -0.015097 10.496460
v -24.986420 -0.015097 13.736404
v -23.067764 -0.015097 16.759716
v -20.785318 -0.015099 19.518719
v -18.175076 -0.015099 21.969900
v -15.278202 -0.015099 24.074600
v -12.140381 -0.015099 25.799629
v -8.811099 -0.015099 27.117785
v -5.342861 -0.015099 28.008276
v -1.790364 -0.015099 28.457058
v 1.790369 -0.015099 28.457058
v 5.342866 -0.015099 28.008272
v 8.811103 -0.015099 27.117779
v 12.140383 -0.015099 25.799620
v 15.278202 -0.015099 24.074591
v 18.175074 -0.015099 21.969889
v 20.785316 -0.015099 19.518709
v 23.067759 -0.015097 16.759706
v 24.986410 -0.015097 13.736394
v 26.511011 -0.015097 10.496451
v 27.617517 -0.015097 7.090973
v 28.288479 -0.015095 3.573666
v 28.513315 -0.015095 -0.000000
vt 0.655018 0.863333
vt 0.651341 0.882608
vt 0.638729 0.879370
vt 0.642100 0.861701
vt 0.645278 0.901269
vt 0.633171 0.896476
vt 0.636923 0.919024
vt 0.625513 0.912751
vt 0.626409 0.935591
vt 0.615875 0.927938
vt 0.613901 0.950710
vt 0.604410 0.941797
vt 0.599598 0.964143
vt 0.591298 0.954110
vt 0.583723 0.975676
vt 0.576746 0.964682
vt 0.566528 0.985129
vt 0.560984 0.973348
vt 0.548284 0.992353
vt 0.544260 0.979969
vt 0.529278 0.997232
vt 0.526838 0.984442
vt 0.509811 0.999692
vt 0.508993 0.986697
vt 0.490189 0.999692
vt 0.491007 0.986697
vt 0.470722 0.997232
vt 0.473162 0.984442
vt 0.451716 0.992353
vt 0.455740 0.979969
vt 0.433472 0.985129
vt 0.439016 0.973348
vt 0.416277 0.975676
vt 0.423254 0.964682
vt 0.400402 0.964143
vt 0.408702 0.954110
vt 0.386099 0.950711
vt 0.395590 0.941797
vt 0.373591 0.935592
vt 0.384125 0.927938
vt 0.363077 0.919024
vt 0.374487 0.912751
vt 0.354722 0.901270
vt 0.366829 0.896476
vt 0.348659 0.882608
vt 0.361271 0.879370
vt 0.344982 0.863333
vt 0.357900 0.861701
vt 0.343750 0.843750
vt 0.356771 0.843750
vt 0.344982 0.824167
vt 0.357900 0.825799
vt 0.348659 0.804892
vt 0.361271 0.808130
vt 0.354722 0.786231
vt 0.366829 0.791024
vt 0.363077 0.768476
vt 0.374487 0.774749
vt 0.373591 0.751909
vt 0.384125 0.759562
vt 0.386099 0.736789
vt 0.395590 0.745703
vt 0.400402 0.723357
vt 0.408702 0.733390
vt 0.416277 0.711824
vt 0.423254 0.722818
vt 0.433472 0.702371
vt 0.439016 0.714152
vt 0.451716 0.695147
vt 0.455740 0.707531
vt 0.470722 0.690268
vt 0.473161 0.703058
vt 0.490189 0.687808
vt 0.491006 0.700803
vt 0.509811 0.687808
vt 0.508993 0.700803
vt 0.529278 0.690267
vt 0.526838 0.703058
vt 0.548284 0.695147
vt 0.544260 0.707531
vt 0.566528 0.702371
vt 0.560984 0.714152
vt 0.583723 0.711824
vt 0.576746 0.722817
vt 0.599598 0.723357
vt 0.591298 0.733390
vt 0.613901 0.736789
vt 0.604410 0.745703
vt 0.626409 0.751908
vt 0.615875 0.759562
vt 0.636923 0.768476
vt 0.625513 0.774749
vt 0.645278 0.786230
vt 0.633171 0.791024
vt 0.651341 0.804892
vt 0.638729 0.808130
vt 0.655018 0.824167
vt 0.642100 0.825798
vt 0.656250 0.843750
vt 0.643229 0.843750
vn 0.0000 1.0000 0.0000
usemtl BlueMaterial
s 1
f 133/133/3 134/134/3 184/135/3 183/136/3
f 134/134/3 135/137/3 185/138/3 184/135/3
f 135/137/3 136/139/3 186/140/3 185/138/3
f 136/139/3 137/141/3 187/142/3 186/140/3
f 137/141/3 138/143/3 188/144/3 187/142/3
f 138/143/3 139/145/3 189/146/3 188/144/3
f 139/145/3 140/147/3 190/148/3 189/146/3
f 140/147/3 141/149/3 191/150/3 190/148/3
f 141/149/3 142/151/3 192/152/3 191/150/3
f 142/151/3 143/153/3 193/154/3 192/152/3
f 143/153/3 144/155/3 194/156/3 193/154/3
f 144/155/3 145/157/3 195/158/3 194/156/3
f 145/157/3 146/159/3 196/160/3 195/158/3
f 146/159/3 147/161/3 197/162/3 196/160/3
f 147/161/3 148/163/3 198/164/3 197/162/3
f 148/163/3 149/165/3 199/166/3 198/164/3
f 149/165/3 150/167/3 200/168/3 199/166/3
f 150/167/3 151/169/3 201/170/3 200/168/3
f 151/169/3 152/171/3 202/172/3 201/170/3
f 152/171/3 153/173/3 203/174/3 202/172/3
f 153/173/3 154/175/3 204/176/3 203/174/3
f 154/175/3 155/177/3 205/178/3 204/176/3
f 155/177/3 156/179/3 206/180/3 205/178/3
f 156/179/3 157/181/3 207/182/3 206/180/3
f 157/181/3 158/183/3 208/184/3 207/182/3
f 158/183/3 159/185/3 209/186/3 208/184/3
f 159/185/3 160/187/3 210/188/3 209/186/3
f 160/187/3 161/189/3 211/190/3 210/188/3
f 161/189/3 162/191/3 212/192/3 211/190/3
f 162/191/3 163/193/3 213/194/3 212/192/3
f 163/193/3 164/195/3 214/196/3 213/194/3
f 164/195/3 165/197/3 215/198/3 214/196/3
f 165/197/3 166/199/3 216/200/3 215/198/3
f 166/199/3 167/201/3 217/202/3 216/200/3
f 167/201/3 168/203/3 218/204/3 217/202/3
f 168/203/3 169/205/3 219/206/3 218/204/3
f 169/205/3 170/207/3 220/208/3 219/206/3
f 170/207/3 171/209/3 221/210/3 220/208/3
f 171/209/3 172/211/3 222/212/3 221/210/3
f 172/211/3 173/213/3 223/214/3 222/212/3
f 173/213/3 174/215/3 224/216/3 223/214/3
f 174/215/3 175/217/3 225/218/3 224/216/3
f 175/217/3 176/219/3 226/220/3 225/218/3
f 176/219/3 177/221/3 227/222/3 226/220/3
f 177/221/3 178/223/3 228/224/3 227/222/3
f 178/223/3 179/225/3 229/226/3 228/224/3
f 179/225/3 180/227/3 230/228/3 229/226/3
f 180/227/3 181/229/3 231/230/3 230/228/3
f 181/229/3 182/231/3 232/232/3 231/230/3
f 182/231/3 133/133/3 183/136/3 232/232/3
o pPlane1_Mesh.037
v 0.000000 -0.000006 35.471569
v -1.783188 -0.000005 31.363266
v 1.783188 -0.000005 31.363266
vt 0.500000 0.000000
vt 1.000000 1.000000
vt 0.000000 1.000000
vn 0.0000 1.0000 0.0000
usemtl BlueMaterial
s 1
f 233/233/4 235/234/4 234/235/4
o pPlane2_Mesh.038
v -35.471569 0.000000 -0.000001
v -31.363266 0.000000 -1.783190
v -31.363266 -0.000000 1.783186
vt 0.500000 0.000000
vt 1.000000 1.000000
vt 0.000000 1.000000
vn 0.0000 1.0000 0.0000
usemtl BlueMaterial
s 1
f 236/236/5 238/237/5 237/238/5
o pPlane3_Mesh.039
v 0.000003 0.000006 -35.471569
v 1.783191 0.000005 -31.363266
v -1.783185 0.000005 -31.363266
vt 0.500000 0.000000
vt 1.000000 1.000000
vt 0.000000 1.000000
vn 0.0000 1.0000 0.0000
usemtl BlueMaterial
s 1
f 239/239/6 241/240/6 240/241/6
o pPlane4_Mesh.040
v 35.471569 -0.000000 0.000001
v 31.363266 -0.000000 1.783188
v 31.363266 0.000000 -1.783188
vt 0.500000 0.000000
vt 1.000000 1.000000
vt 0.000000 1.000000
vn -0.0000 1.0000 0.0000
usemtl BlueMaterial
s 1
f 242/242/7 244/243/7 243/244/7
o pPlane5_Mesh.041
v 8.376629 -0.000005 32.198364
v 7.078549 -0.000005 30.564291
v 8.683762 -0.000005 30.134176
vt 0.500000 0.000000
vt 1.000000 1.000000
vt 0.000000 1.000000
vn -0.0000 1.0000 0.0000
usemtl BlueMaterial
s 1
f 245/245/8 247/246/8 246/247/8
o pPlane6_Mesh.042
v 16.424753 -0.000005 28.933201
v 14.747975 -0.000005 27.690777
v 16.187170 -0.000004 26.859856
vt 0.500000 0.000000
vt 1.000000 1.000000
vt 0.000000 1.000000
vn 0.0000 1.0000 0.0000
usemtl BlueMaterial
s 1
f 248/248/9 250/249/9 249/250/9
o pPlane7_Mesh.043
v 23.353558 -0.000004 23.696293
v 21.412350 -0.000004 22.930183
v 22.587448 -0.000004 21.755085
vt 0.500000 0.000000
vt 1.000000 1.000000
vt 0.000000 1.000000
vn 0.0000 1.0000 0.0000
usemtl BlueMaterial
s 1
f 251/251/10 253/252/10 252/253/10
o pPlane8_Mesh.044
v 28.690855 -0.000003 16.844509
v 26.617508 -0.000003 16.606924
v 27.448427 -0.000002 15.167730
vt 0.500000 0.000000
vt 1.000000 1.000000
vt 0.000000 1.000000
vn 0.0000 1.0000 0.0000
usemtl BlueMaterial
s 1
f 254/254/11 256/255/11 255/256/11
o pPlane9_Mesh.045
v 32.072918 -0.000001 8.844810
v 30.008728 -0.000001 9.151942
v 30.438843 -0.000001 7.546730
vt 0.500000 0.000000
vt 1.000000 1.000000
vt 0.000000 1.000000
vn 0.0000 1.0000 0.0000
usemtl BlueMaterial
s 1
f 257/257/12 259/258/12 258/259/12
o pPlane11_Mesh.046
v 32.198364 0.000001 -8.376629
v 30.564293 0.000001 -7.078549
v 30.134176 0.000001 -8.683762
vt 0.500000 0.000000
vt 1.000000 1.000000
vt 0.000000 1.000000
vn 0.0000 1.0000 0.0000
usemtl BlueMaterial
s 1
f 260/260/13 262/261/13 261/262/13
o pPlane12_Mesh.047
v 28.933201 0.000003 -16.424751
v 27.690775 0.000002 -14.747973
v 26.859856 0.000003 -16.187168
vt 0.500000 0.000000
vt 1.000000 1.000000
vt 0.000000 1.000000
vn 0.0000 1.0000 0.0000
usemtl BlueMaterial
s 1
f 263/263/14 265/264/14 264/265/14
o pPlane13_Mesh.048
v 23.696289 0.000004 -23.353554
v 22.930180 0.000003 -21.412346
v 21.755081 0.000004 -22.587444
vt 0.500000 0.000000
vt 1.000000 1.000000
vt 0.000000 1.000000
vn 0.0000 1.0000 0.0000
usemtl BlueMaterial
s 1
f 266/266/15 268/267/15 267/268/15
o pPlane14_Mesh.049
v 16.844515 0.000005 -28.690855
v 16.606930 0.000004 -26.617508
v 15.167736 0.000004 -27.448427
vt 0.500000 0.000000
vt 1.000000 1.000000
vt 0.000000 1.000000
vn 0.0000 1.0000 0.0000
usemtl BlueMaterial
s 1
f 269/269/16 271/270/16 270/271/16
o pPlane15_Mesh.050
v 8.844811 0.000005 -32.072914
v 9.151944 0.000005 -30.008724
v 7.546732 0.000005 -30.438839
vt 0.500000 0.000000
vt 1.000000 1.000000
vt 0.000000 1.000000
vn 0.0000 1.0000 0.0000
usemtl BlueMaterial
s 1
f 272/272/17 274/273/17 273/274/17
o pPlane17_Mesh.051
v -8.376630 0.000005 -32.198360
v -7.078550 0.000005 -30.564287
v -8.683764 0.000005 -30.134172
vt 0.500000 0.000000
vt 1.000000 1.000000
vt 0.000000 1.000000
vn 0.0000 1.0000 0.0000
usemtl BlueMaterial
s 1
f 275/275/18 277/276/18 276/277/18
o pPlane18_Mesh.052
v -16.424749 0.000005 -28.933201
v -14.747972 0.000005 -27.690775
v -16.187166 0.000004 -26.859856
vt 0.500000 0.000000
vt 1.000000 1.000000
vt 0.000000 1.000000
vn -0.0000 1.0000 0.0000
usemtl BlueMaterial
s 1
f 278/278/19 280/279/19 279/280/19
o pPlane19_Mesh.053
v -23.353556 0.000004 -23.696287
v -21.412350 0.000004 -22.930178
v -22.587446 0.000004 -21.755081
vt 0.500000 0.000000
vt 1.000000 1.000000
vt 0.000000 1.000000
vn -0.0000 1.0000 0.0000
usemtl BlueMaterial
s 1
f 281/281/20 283/282/20 282/283/20
o pPlane20_Mesh.054
v -28.690855 0.000003 -16.844503
v -26.617508 0.000003 -16.606918
v -27.448429 0.000002 -15.167725
vt 0.500000 0.000000
vt 1.000000 1.000000
vt 0.000000 1.000000
vn 0.0000 1.0000 0.0000
usemtl BlueMaterial
s 1
f 284/284/21 286/285/21 285/286/21
o pPlane21_Mesh.055
v -32.072918 0.000001 -8.844808
v -30.008728 0.000001 -9.151940
v -30.438843 0.000001 -7.546728
vt 0.500000 0.000000
vt 1.000000 1.000000
vt 0.000000 1.000000
vn 0.0000 1.0000 0.0000
usemtl BlueMaterial
s 1
f 287/287/22 289/288/22 288/289/22
o pPlane22_Mesh.056
v -33.269268 0.000000 -0.242349
v -31.354904 0.000000 -1.073269
v -31.354904 -0.000000 0.588570
vt 0.500000 0.000000
vt 1.000000 1.000000
vt 0.000000 1.000000
vn -0.0000 1.0000 0.0000
usemtl BlueMaterial
s 1
f 290/290/23 292/291/23 291/292/23
o pPlane23_Mesh.057
v -32.198364 -0.000001 8.376630
v -30.564291 -0.000001 7.078550
v -30.134176 -0.000001 8.683763
vt 0.500000 0.000000
vt 1.000000 1.000000
vt 0.000000 1.000000
vn 0.0000 1.0000 0.0000
usemtl BlueMaterial
s 1
f 293/293/24 295/294/24 294/295/24
o pPlane24_Mesh.058
v -28.933201 -0.000003 16.424749
v -27.690775 -0.000002 14.747972
v -26.859856 -0.000003 16.187166
vt 0.500000 0.000000
vt 1.000000 1.000000
vt 0.000000 1.000000
vn -0.0000 1.0000 0.0000
usemtl BlueMaterial
s 1
f 296/296/25 298/297/25 297/298/25
o pPlane25_Mesh.059
v -23.696289 -0.000004 23.353561
v -22.930180 -0.000003 21.412354
v -21.755081 -0.000004 22.587452
vt 0.500000 0.000000
vt 1.000000 1.000000
vt 0.000000 1.000000
vn -0.0000 1.0000 0.0000
usemtl BlueMaterial
s 1
f 299/299/26 301/300/26 300/301/26
o pPlane26_Mesh.060
v -16.844513 -0.000005 28.690857
v -16.606928 -0.000004 26.617512
v -15.167734 -0.000004 27.448433
vt 0.500000 0.000000
vt 1.000000 1.000000
vt 0.000000 1.000000
vn -0.0000 1.0000 0.0000
usemtl BlueMaterial
s 1
f 302/302/27 304/303/27 303/304/27
o pPlane27_Mesh.061
v -8.844809 -0.000005 32.072918
v -9.151942 -0.000005 30.008728
v -7.546729 -0.000005 30.438843
vt 0.500000 0.000000
vt 1.000000 1.000000
vt 0.000000 1.000000
vn -0.0000 1.0000 0.0000
usemtl BlueMaterial
s 1
f 305/305/28 307/306/28 306/307/28
